<svg xmlns="http://www.w3.org/2000/svg" width="44" height="45" fill="none" xmlns:v="https://vecta.io/nano"><g clip-path="url(#D)" fill-rule="evenodd"><path d="M31.01 14h-18a2 2 0 0 0-2 2v12a2 2 0 0 0 2 2h5v2h8v-2h5a2 2 0 0 0 2-2V16a2 2 0 0 0-2-2zm0 12.42c0-1.91-3.82-2.86-5.72-2.86a7.79 7.79 0 0 0-.8 0 3.44 3.44 0 0 1 1.6 2.86V28h-1.63v-1.58c0-1.91-3.82-2.86-5.73-2.86s-5.72.94-5.72 2.86V16h18v10.42z" fill="url(#A)"/><path d="M21.18 19.42a2.45 2.45 0 0 1-.703 1.758 2.45 2.45 0 0 1-1.747.732 2.46 2.46 0 0 1-1.75-.731 2.46 2.46 0 0 1-.71-1.759 2.46 2.46 0 0 1 2.46-2.45 2.45 2.45 0 0 1 2.45 2.45z" fill="url(#B)"/><path d="M27.72 19.42a2.45 2.45 0 0 1-.7 1.755c-.227.232-.498.416-.796.542a2.45 2.45 0 0 1-.944.193 2.46 2.46 0 0 1-1.75-.731 2.46 2.46 0 0 1-.71-1.759 2.46 2.46 0 0 1 2.46-2.45 2.45 2.45 0 0 1 2.44 2.45z" fill="url(#C)"/></g><defs><linearGradient id="A" x1="10.251" y1="32.771" x2="34.23" y2="1.861" gradientUnits="userSpaceOnUse"><stop stop-color="#4312a5"/><stop offset=".256" stop-color="#6233df"/><stop offset="1" stop-color="#849bff"/></linearGradient><linearGradient id="B" x1="16.1" y1="22.122" x2="22.887" y2="15.007" gradientUnits="userSpaceOnUse"><stop stop-color="#4312a5"/><stop offset=".256" stop-color="#6233df"/><stop offset="1" stop-color="#849bff"/></linearGradient><linearGradient id="C" x1="22.651" y1="22.122" x2="29.438" y2="15.021" gradientUnits="userSpaceOnUse"><stop stop-color="#4312a5"/><stop offset=".256" stop-color="#6233df"/><stop offset="1" stop-color="#849bff"/></linearGradient><clipPath id="D"><path fill="#fff" transform="translate(11 14)" d="M0 0h22v18H0z"/></clipPath></defs></svg>