<svg width="307" height="478" viewBox="0 0 307 478" fill="none" xmlns="http://www.w3.org/2000/svg">
<path d="M53.486 348C36.8567 348 25.1182 332.504 25.1182 312.701C25.1182 292.898 36.8567 277.401 53.486 277.401C69.4623 277.401 81.2009 292.898 81.2009 312.701C81.2009 332.504 69.4623 348 53.486 348ZM74.6801 -1.2086e-05C119.024 -1.2086e-05 150 33.1471 150 91.2614C150 149.376 118.372 177.789 75.0061 177.789L73.7012 245.116H33.5959L31.9659 137.753H46.6383C80.5489 137.753 105.982 129.574 105.655 90.831C105.655 65.8638 93.9173 50.3662 74.6801 50.3662C54.79 50.3662 43.0515 65.4321 43.0515 90.831H0.0112514C-0.640721 38.7433 27.0741 -1.2086e-05 74.6801 -1.2086e-05Z" fill="#673DE6"/>
<path d="M200 471.709C200.409 473.35 201.273 478 209.82 478C218.369 478 223.274 474.456 224.956 470.064C226.636 465.672 225.672 462.416 225.515 458.586C225.36 454.756 228.176 452.314 228.799 450.246C229.717 447.196 227.197 443 227.197 443L200 471.709Z" fill="#17282F"/>
<path d="M119.166 450.99C118.861 451.235 118.9 453.767 119.941 454.846C120.657 455.591 126.956 459.062 134.2 457.677C141.444 456.29 144.856 454.275 148.83 451.698C152.895 449.061 155.82 448.499 160.178 448.174C164.396 447.859 167.443 446.866 167.711 445.839C168.182 444.036 168.121 442.91 167.2 443.006L119.166 450.99Z" fill="#17282F"/>
<path d="M225 436.108C225 443.924 209.138 445.351 209.529 439.057L204 420.793L221.929 419L225 436.108" fill="#F6879F"/>
<path d="M200.385 467.703C200.94 466.189 202.838 463.857 203.624 462.452C207.724 455.117 209.828 446.955 209.311 438.474C209.282 438.009 209.219 437.107 209.631 436.769C210.068 436.412 210.555 436.753 211.066 436.9L211.088 436.873L211.099 436.91C211.737 437.089 212.612 437.27 213.802 437.239C216.831 437.16 220.035 435.969 220.794 435.969C221.384 435.969 221.809 437.771 222.028 439.754C222.998 438.923 223.162 437.519 224.009 436.595C224.466 436.097 224.692 436.05 224.585 435.349C224.517 434.891 224.433 434.484 224.366 434.027C225.1 433.69 226.147 436.592 227.085 438.786C228.171 441.325 229.483 444.18 228.821 447.008C228.455 448.58 227.69 450.022 227.006 451.483C225.828 453.999 224.862 456.712 224.973 459.5C225.022 460.718 225.277 461.927 225.269 463.149C225.247 467.406 222.878 471.082 219.095 472.892C214.18 475.243 206.432 476.067 201.411 473.044C199.654 471.986 199.829 469.216 200.385 467.703" fill="#33535F"/>
<path d="M163.783 429.381C159.39 432.495 154.764 432.867 149.6 430.31L147 403H166L163.783 429.381Z" fill="#F6879F"/>
<path d="M203.235 247.711C206.701 279.168 211.303 347.399 211.303 347.399C211.303 347.399 216.511 356.862 218.543 372.038C221.052 390.778 224 429.305 224 429.305C224 429.305 215.139 435.002 206.521 432.248C206.521 432.248 186.805 373.093 182.871 354.644C179.439 338.543 173.361 299.716 173.361 299.716L165.76 350.477C165.76 350.477 168.745 359.818 168.214 372.408C167.848 381.075 164.397 417.089 164.397 417.089C161.545 419.757 150.577 420.117 146.917 417.811C146.917 417.811 141.652 359.763 140.883 350.659C139.873 338.683 138 247 138 247L203.235 247.711" fill="#371E83"/>
<path d="M122.588 445.383C129.565 442.1 136.305 438.382 140.478 434.909C141.646 433.936 142.541 433.123 143.279 432.37C144.957 430.388 145.736 426.312 146.488 425.792C146.732 425.623 147.115 425.769 147.667 426.05C147.941 425.707 148.278 425.584 148.55 425.554L148.665 426.567C149.831 427.153 151.474 427.844 153.749 427.938C158.213 428.123 158.314 427.229 158.576 428.645C158.64 428.989 158.684 429.56 158.687 430.239C161.016 429.743 163.22 429.043 163.279 428.156L163.542 425.017C165.871 424.696 165.722 429.006 166.712 433.638C167.515 437.386 168.558 440.082 167.645 442.909C164.253 446.142 157.979 445.693 154.452 446.443C149.463 447.504 147.289 451.31 140.413 454.041C129.328 458.442 122 454.312 119.793 452.465C118.28 450.052 118.785 447.173 122.588 445.383" fill="#33535F"/>
<path d="M127.015 169.414C116.15 179.599 104.34 192.834 104.34 192.834C102.345 192.248 84.6866 183.395 80.0212 180.197C78.463 179.129 76.5088 177.853 75.5467 176.212C74.6224 174.639 74.4064 172.344 73.9504 170.584C73.1688 167.57 72.4105 164.501 70.977 161.713C69.2787 158.408 65.4749 156.107 61.906 155.301C60.413 154.963 58.8485 154.849 57.4555 154.215C56.4876 153.774 55.642 153.097 54.9186 152.321C54.4808 151.851 54.0551 151.325 53.4522 151.101C52.4836 150.741 52.0174 151.401 51.8058 152.196C51.4961 153.369 51.6811 154.628 52.1055 155.765C52.794 157.616 54.0577 159.147 55.006 160.859C56.449 163.465 57.7767 166.987 57.6582 170.016C57.6335 170.634 57.3927 171.904 56.6194 171.071C55.6096 169.984 54.6804 168.804 53.4984 167.905C52.3171 167.005 50.8056 166.402 49.3448 166.686C48.9047 166.77 48.4575 166.952 48.192 167.31C47.8152 167.82 48.0584 168.168 48.3625 168.565C48.6824 168.983 48.93 169.458 49.1948 169.916C49.7408 170.863 50.2888 171.81 50.8481 172.749C54.1142 178.232 57.928 183.713 63.615 186.935C64.4404 187.403 65.2817 187.845 66.1274 188.274C69.7506 190.115 76.1965 195.338 81.3122 199.048C86.0029 202.449 93.5706 206.665 96.4084 208.235C103.723 212.283 106.947 212.266 108.64 211.778C110.331 211.293 112.118 210.033 115.412 207.943C122.78 203.269 150.165 179.753 150.165 179.753L156 153.845C146.076 153.174 141.892 155.47 127.015 169.414" fill="#F6879F"/>
<path d="M156 153.268C149.534 152.424 143.121 153.228 134.685 160.784C123.885 170.455 104.022 192.544 104.022 192.544C104.022 192.544 94.63 188.146 84.4596 182.763C83.1597 182.858 80.0238 185.424 78.6027 188.635C77.1131 192 76.7642 194.929 77.1391 197.583C77.1391 197.583 91.3883 207.406 100.311 212C108.034 215.976 110.687 213.39 116.528 209.753C122.368 206.113 149.43 186.194 149.43 186.194L156 153.268Z" fill="#33535F"/>
<path d="M102 182.975C98.4426 185.886 97.1108 191 97.1108 191C97.1108 191 96.168 185.506 99.783 182L102 182.975" fill="#273E47"/>
<path d="M175.912 154.348C184.861 155.697 195.098 156.402 201.376 157.252C208.225 158.182 208.36 162.493 207.79 174.126C206.976 190.769 202.576 209.892 201.846 223.988L204.245 253.187C196.217 261.709 157.756 265.437 137.245 252.947C137.245 252.947 136.693 191.942 137.245 182.148C138.215 164.911 148.252 153.891 154.659 153.405C154.659 153.405 160.524 152.03 175.912 154.348" fill="#FC5185"/>
<path d="M165.151 174.467C165.307 178.411 167.24 225.117 167.945 229.624C168.65 234.129 162.373 241.107 160.653 240.999C158.932 240.893 152.758 235.484 152 230.477C152.432 224.294 157.766 180.637 160.889 174L165.151 174.467" fill="#673DE6"/>
<path d="M163.992 175C163.991 175 163.989 175 163.988 175C163.963 174.636 163.945 174.372 163.936 174.223C163.946 174.396 163.969 174.664 164 175C163.997 175 163.994 175 163.992 175M160.005 174.264C160.003 174.263 160.002 174.262 160 174.261C160.063 174.17 160.127 174.081 160.188 174C160.129 174.078 160.067 174.167 160.005 174.264" fill="#1F3239"/>
<path d="M164 175C162.478 174.999 160.529 174.571 160 174.279C160.063 174.185 160.125 174.098 160.185 174.021C160.191 174.014 160.197 174.007 160.202 174L163.948 174.24C163.957 174.385 163.975 174.644 164 175" fill="#19B19D"/>
<path d="M166.563 165.506C163.328 165.86 160.559 165 160.559 165C160.559 165 159.458 167.139 159 169.181C159 169.181 159.213 171.197 160.522 173.345C160.522 173.345 162.053 174.437 164.52 173.801C164.52 173.801 167.133 172.071 168 170.689C167.681 169.227 167.021 166.085 166.563 165.506" fill="#26B6A6"/>
<path d="M157.821 102C157.821 102 152.772 102.655 150.92 106.204C149.311 109.29 149.894 116.741 152.039 124.861C154.186 132.981 156.206 137.874 157.468 140.121C158.731 142.367 161.322 143 161.322 143L161.07 133.363L160.697 126.65C160.697 126.65 165.318 120.766 165.827 115.943C166.479 109.734 165.079 107.194 165.079 107.194L157.821 102" fill="#17282F"/>
<path d="M152.589 102L146 99.1917C146.936 97.3645 149.169 96.5113 150.988 97.286C152.808 98.0623 153.525 100.173 152.589 102" fill="#17282F"/>
<path d="M171 110.553C171.029 119.667 178.215 127.029 187.052 127C195.888 126.97 203.029 119.56 203 110.447C202.971 101.333 195.785 93.9706 186.948 94.0001C178.112 94.0296 170.971 101.441 171 110.553Z" fill="#17282F"/>
<path d="M160.38 125.54C158.703 126.969 157.339 123.272 155.928 121.833C154.516 120.393 149.918 118.432 147.645 123.178C145.326 128.015 149.751 134.585 153.186 136.149C158.222 138.442 160.479 133.457 160.479 133.457L160.921 150.356C157.512 157.916 161.662 160.717 163.325 165C164.31 161.198 174.906 163.544 181.291 154.87L181.317 148.182C181.317 148.182 186.897 148.978 189.649 148.553C194.229 147.842 196.621 144.451 197.995 139.579C200.202 131.75 201.087 118.595 198.022 103.398C192.893 99.5035 175.11 100.147 164.349 106.846C165.137 120.326 162.057 124.113 160.38 125.54" fill="#F6879F"/>
<path d="M194.893 92.4356C194.759 92.1954 194.537 91.9758 194.255 91.9699C194.033 91.9655 193.835 92.0952 193.656 92.2175C193.011 92.6596 191.581 93.7986 189.76 94.7049C190.124 93.05 190.141 91.3289 189.827 89.6653C189.634 88.6426 189.328 86.2761 187.993 86.0226C187.199 85.8723 186.505 86.5015 185.915 87.0276C180.564 91.771 173.581 89.5768 167.136 89.7714C161.747 89.9334 155.244 92.0127 152.809 96.9801C151.696 99.2509 151.504 101.647 153.705 103.216C155.583 104.557 157.992 105.163 160.276 105.54C171.012 107.311 186.401 111.496 194.338 102.009C195.505 100.612 196.014 99.0328 196 97.0331C195.989 95.1941 195.583 93.8384 194.924 92.496L194.893 92.4356" fill="#17282F"/>
<path d="M181 148.426C181 148.426 170.613 146.463 167.002 144.657C164.584 143.45 162.589 141.349 162 140C162 140 162.686 142.898 164.851 145.503C167.501 148.689 180.943 151 180.943 151L181 148.426" fill="#F47089"/>
<path d="M179 122.498C179.003 123.88 178.111 125 177.007 125C175.902 125.002 175.003 123.882 175 122.502C174.997 121.12 175.889 120 176.993 120C178.098 120 178.995 121.118 179 122.498Z" fill="#17282F"/>
<path d="M173 113.295L169.169 115C168.716 113.912 169.206 112.648 170.263 112.178C171.322 111.706 172.546 112.206 173 113.295Z" fill="#17282F"/>
<path d="M180.179 136L186 138.016C185.431 139.571 183.667 140.381 182.057 139.825C180.45 139.267 179.608 137.555 180.179 136Z" fill="#C35363"/>
<path d="M181.659 139.806C182.107 140.021 182.566 140.047 183 139.935C182.945 138.304 181.922 137 180.657 137C180.427 137 180.21 137.057 180 137.137C180.16 138.324 180.761 139.37 181.659 139.806" fill="#F47089"/>
<path d="M191.867 114L187 112.478C187.45 111.314 188.903 110.713 190.249 111.134C191.593 111.554 192.316 112.838 191.867 114" fill="#17282F"/>
<path d="M196 121.5C196.005 122.88 195.112 124 194.006 124C192.902 124 192.003 122.882 192 121.502C191.997 120.12 192.89 119 193.992 119C195.098 119 195.997 120.118 196 121.5" fill="#17282F"/>
<path d="M185 120L185.841 132L193 129.963L185 120Z" fill="#F47089"/>
<path d="M180.861 149C182.147 149.099 182.724 149.296 183.773 151.432C184.969 153.865 186 156.089 186 156.089C186 156.089 186 161.018 181.64 165.523C177.323 169.983 167.752 173 167.752 173C167.752 173 166.955 168.497 166.344 166.645C165.007 162.594 163 165.811 163 165.811C163 165.811 163.239 164.188 164.093 163.413C164.946 162.64 170.423 162.158 174.792 159.36C179.16 156.563 180.794 151.613 180.794 151.613L180.861 149" fill="#33535F"/>
<path d="M163 165.438C162.998 163.143 162.318 162.708 161.833 162.016C160.59 160.245 160.605 158.624 160.59 156.825C160.574 155.029 160.597 151 160.597 151C159.1 151.187 158 151.435 157.066 153.686C156.132 155.938 154.422 160.532 155.195 165.021C155.968 169.508 157.961 171 157.961 171C157.961 171 159.108 167.206 159.824 165.453C160.542 163.699 161.921 163.237 163 165.438" fill="#33535F"/>
<path d="M306.346 163.181C306.266 162.895 306.162 162.616 306.019 162.354C305.133 160.733 303.24 161.037 301.773 161.671C300.957 162.022 298.426 163.844 297.703 164.371C294.633 166.598 291.323 168.464 287.854 169.92C286.819 170.373 285.462 170.843 284.382 170.355C284.483 169.314 284.938 168.348 285.423 167.434C285.909 166.518 286.441 165.613 286.722 164.609C287.001 163.604 287.001 162.458 286.462 161.576C286.153 161.071 285.57 160.656 285.025 160.846C284.777 160.931 284.582 161.126 284.395 161.316C283.345 162.381 282.308 163.464 281.243 164.512C280.276 165.462 279.572 166.634 278.8 167.772C277.723 169.357 276.937 170.902 276.027 172.56C274.179 175.922 272.158 178.985 269.433 181.557C266.178 184.633 249.656 198.364 246.544 201.054C246.544 201.054 228.232 180.864 222.545 174.096C211.944 161.48 207.714 158.729 201 158L203.343 191.955C203.343 191.955 231.967 216.609 238.09 220.874C245.669 226.538 248.675 225.64 251.889 222.541C255.005 219.54 260.426 214.09 263.253 210.797C267.486 205.868 271.677 200.898 276.01 196.063C277.101 194.846 278.199 193.642 279.328 192.488C281.293 190.482 282.13 189.418 284.551 188.071C287.433 186.468 290.992 186.23 294.016 184.851C297.074 183.457 299.9 181.564 302.334 179.261C304.04 177.645 305.588 175.781 306.362 173.571C307.353 170.738 306.987 167.636 306.609 164.66C306.545 164.165 306.48 163.661 306.346 163.181" fill="#F6879F"/>
<path d="M198.65 158C204.299 158.658 208.659 158.711 215.548 165.734C223.033 173.364 246.356 200.163 246.356 200.163L264.486 185.966C264.486 185.966 264.595 189.375 267.801 192.957C271.006 196.538 275 197.34 275 197.34C275 197.34 257.69 218.362 251.967 223.007C246.706 227.276 244.737 226.758 238.949 222.847C232.3 218.353 203.202 193.919 203.202 193.919C203.202 193.919 188.318 175.938 198.65 158" fill="#33535F"/>
<path d="M247 199.292C240.991 203.712 238.027 211 238.027 211C238.027 211 237.191 203.441 244.866 197L247 199.292" fill="#273E47"/>
</svg>
