<svg width="152" height="225" viewBox="0 0 152 225" fill="none" xmlns="http://www.w3.org/2000/svg">
<path d="M69.9132 194.062C69.4452 194.062 68.953 194.008 68.4761 193.894C66.9386 193.526 66.138 192.674 66.6894 191.99C67.0695 191.518 67.9938 191.25 69.0364 191.25C69.5044 191.25 69.9957 191.304 70.4726 191.418C72.011 191.786 72.8098 192.639 72.2593 193.323C71.8792 193.794 70.9549 194.062 69.9132 194.062" fill="#E8F7F4"/>
<path d="M78.3515 203.907C74.5889 203.675 71.0025 203.133 68.0804 202.273C68.0785 202.273 68.0767 202.272 68.0758 202.272C68.0648 202.268 68.0547 202.266 68.0437 202.262C67.4968 202.1 66.9867 201.932 66.5151 201.758V201.095C68.5831 201.551 70.6915 201.866 72.7898 202.064C74.1302 203.032 76.0688 203.706 78.3515 203.907Z" fill="#B5E6DD"/>
<path d="M73.2354 215.994C72.9604 215.994 72.6927 215.981 72.4333 215.955C74.3284 213.42 76.9172 211.046 80.0515 209.531C80.2663 209.724 80.4423 209.943 80.572 210.187C81.501 211.928 79.718 214.255 76.5893 215.387C75.4519 215.798 74.2941 215.994 73.2354 215.994Z" fill="#DFF4EF"/>
<path d="M80.3079 204.354C78.8185 204.203 77.621 203.626 77.118 202.682C76.189 200.941 77.9729 198.613 81.1017 197.481C82.2381 197.07 83.3968 196.874 84.4546 196.874C85.9013 196.874 87.1619 197.241 87.926 197.929C84.7917 199.444 82.2029 201.819 80.3079 204.354" fill="#E8F7F4"/>
<path d="M70.3002 201.094C70.0006 201.094 69.7169 201.037 69.4744 200.932V198.691C69.6155 198.598 69.7746 198.516 69.9489 198.449C70.2478 198.335 70.5566 198.281 70.8509 198.281C71.505 198.281 72.0849 198.549 72.3242 199.021C72.6702 199.705 72.1671 200.558 71.2015 200.926C70.9026 201.04 70.5938 201.094 70.3002 201.094" fill="#E8F7F4"/>
<path d="M72.9988 196.876C72.8051 196.876 72.6162 196.873 72.4333 196.867C73.7709 196.316 75.5988 195.799 77.8103 195.47C77.9626 195.512 78.0861 195.559 78.1781 195.612C78.8335 195.991 77.574 196.498 75.3665 196.744C74.5638 196.833 73.7462 196.876 72.9988 196.876Z" fill="#EDF9F6"/>
<path d="M75.1927 189.845C73.9958 189.788 73.0352 189.571 72.6303 189.216C71.8857 188.562 73.3176 187.686 75.8304 187.261C76.7427 187.106 77.6729 187.032 78.5233 187.032C79.6841 187.032 80.6965 187.17 81.3106 187.429C78.7944 187.999 76.7145 188.892 75.1927 189.845" fill="#F7FCFB"/>
<path d="M85.9915 204.055C83.3898 204.055 81.2817 202.318 81.2817 200.176C81.2817 200.161 81.2817 200.147 81.2817 200.132C81.4772 199.996 81.6809 199.866 81.8921 199.742C83.4232 198.845 84.6995 197.672 85.609 196.309C85.735 196.301 85.8628 196.297 85.9915 196.297C88.5933 196.297 90.7023 198.034 90.7023 200.176C90.7023 202.318 88.5933 204.055 85.9915 204.055" fill="#DDF3EE"/>
<path d="M81.2817 200.132C81.3086 198.115 83.2037 196.468 85.609 196.309C84.6995 197.672 83.4232 198.845 81.8921 199.741C81.6809 199.865 81.4772 199.995 81.2817 200.132" fill="#EBF8F5"/>
<path d="M87.0453 190.161C86.8175 188.609 86.1672 187.164 85.1929 185.906C86.5664 186.309 87.5492 187.39 87.5492 188.659C87.5492 189.209 87.3658 189.722 87.0453 190.161Z" fill="white"/>
<path d="M83.9992 191.581C82.0393 191.581 80.45 190.272 80.45 188.658C80.45 187.044 82.0393 185.735 83.9992 185.735C84.4179 185.735 84.8198 185.795 85.1931 185.905C86.1675 187.163 86.8177 188.608 87.0455 190.16C86.425 191.011 85.2931 191.581 83.9992 191.581" fill="#E0F4EF"/>
<path d="M75.4244 185.443C74.4528 185.443 73.6655 184.795 73.6655 183.995C73.6655 183.195 74.4528 182.547 75.4244 182.547C76.396 182.547 77.1842 183.195 77.1842 183.995C77.1842 184.795 76.396 185.443 75.4244 185.443Z" fill="#EBF8F5"/>
<path d="M62.5184 189.354C60.8114 188.754 59.6147 187.361 59.6147 185.736C59.6147 183.566 61.7525 181.806 64.3875 181.806C65.699 181.806 66.8874 182.242 67.7497 182.947C65.1183 184.433 63.1881 186.724 62.5184 189.354" fill="white"/>
<path d="M64.3879 189.666C63.7247 189.666 63.0931 189.555 62.5188 189.353C63.1885 186.724 65.1187 184.433 67.7501 182.946C68.6216 183.659 69.1607 184.646 69.1607 185.736C69.1607 187.907 67.0239 189.666 64.3879 189.666Z" fill="#E0F4EF"/>
<path d="M61.0568 194.683C59.8212 194.683 58.8191 193.857 58.8191 192.84C58.8191 191.822 59.8212 190.997 61.0568 190.997C61.5005 190.997 61.9145 191.104 62.2627 191.287C62.2627 191.32 62.2627 191.354 62.2627 191.386C62.2618 192.323 62.4146 193.23 62.6999 194.091C62.2915 194.455 61.7061 194.683 61.0568 194.683" fill="#DDF3EE"/>
<path d="M62.7001 194.091C62.4148 193.23 62.262 192.323 62.2629 191.386C62.2629 191.354 62.2629 191.32 62.2629 191.287C62.8835 191.615 63.2947 192.188 63.2947 192.84C63.2947 193.323 63.0697 193.762 62.7001 194.091Z" fill="#EBF8F5"/>
<path d="M63.4094 203.461C61.0059 203.461 59.0571 201.857 59.0571 199.878C59.0571 197.9 61.0059 196.296 63.4094 196.296C63.5382 196.296 63.6651 196.301 63.7919 196.31C64.6996 197.669 65.9723 198.841 67.5005 199.734C67.5876 199.786 67.6746 199.838 67.7598 199.893C67.7506 201.865 65.8055 203.461 63.4094 203.461" fill="white"/>
<path d="M67.7599 199.895C67.6747 199.84 67.5876 199.788 67.5006 199.736C65.9723 198.843 64.6997 197.671 63.792 196.312C66.0149 196.471 67.7599 198.008 67.7599 199.88C67.7599 199.885 67.7599 199.89 67.7599 199.895Z" fill="#E0F4EF"/>
<path d="M71.5805 207.337C70.5663 206.943 69.8633 206.092 69.8633 205.107C69.8633 204.381 70.2449 203.728 70.8525 203.277C71.3304 204.263 71.5805 205.33 71.5805 206.416V207.337Z" fill="white"/>
<path d="M72.8571 207.571C72.4005 207.571 71.9679 207.487 71.5808 207.336V206.415C71.5808 205.33 71.3307 204.263 70.8528 203.277C71.3835 202.883 72.0865 202.642 72.8571 202.642C74.5104 202.642 75.8506 203.746 75.8506 205.106C75.8506 206.468 74.5104 207.571 72.8571 207.571" fill="#E0F4EF"/>
<path d="M56.095 189.916C55.2521 189.916 54.5686 189.354 54.5686 188.659C54.5686 187.965 55.2521 187.402 56.095 187.402C56.9379 187.402 57.6214 187.965 57.6214 188.659C57.6214 189.354 56.9379 189.916 56.095 189.916Z" fill="white"/>
<path d="M89.7842 185.118C88.6737 185.118 87.7734 184.377 87.7734 183.462C87.7734 182.548 88.6737 181.807 89.7842 181.807C90.8938 181.807 91.7951 182.548 91.7951 183.462C91.7951 184.377 90.8938 185.118 89.7842 185.118Z" fill="#DDF3EE"/>
<path d="M91.7953 193.251C90.6774 193.251 89.7725 192.505 89.7725 191.585C89.7725 190.665 90.6774 189.918 91.7953 189.918C92.9123 189.918 93.8182 190.665 93.8182 191.585C93.8182 192.505 92.9123 193.251 91.7953 193.251Z" fill="white"/>
<path d="M72.8577 194.915C71.7398 194.915 70.834 194.169 70.834 193.249C70.834 192.329 71.7398 191.583 72.8577 191.583C73.9748 191.583 74.8797 192.329 74.8797 193.249C74.8797 194.169 73.9748 194.915 72.8577 194.915Z" fill="#EBF8F5"/>
<path d="M67.0819 213.75C66.8874 213.75 66.6988 213.745 66.5151 213.733C67.8532 212.63 69.6803 211.597 71.8923 210.938C72.0442 211.022 72.1686 211.117 72.2596 211.223C72.9157 211.98 71.6561 212.994 69.4483 213.486C68.6461 213.665 67.829 213.75 67.0819 213.75" fill="#D1EFE9"/>
<path d="M66.3156 210.938C65.12 210.854 64.1579 210.528 63.7534 209.995C63.0079 209.014 64.4409 207.7 66.9528 207.063C67.8664 206.83 68.7961 206.72 69.6461 206.72C70.8076 206.72 71.819 206.926 72.4334 207.315C69.9168 208.169 67.8379 209.509 66.3156 210.938" fill="#DFF4EF"/>
<path d="M75.3924 219.376C75.0639 219.206 74.7252 219.05 74.3783 218.908C74.0962 217.21 73.0477 215.727 72.4333 215.157C73.8263 216.265 74.8717 217.721 75.3924 219.376" fill="#A7E1D8"/>
<path d="M67.081 222.188C66.887 222.188 66.6977 222.182 66.5151 222.17C67.8532 221.068 69.68 220.035 71.8919 219.375C72.0441 219.459 72.1686 219.555 72.2599 219.661C72.9151 220.418 71.6561 221.431 69.4479 221.923C68.6453 222.102 67.8284 222.188 67.081 222.188Z" fill="#D1EFE9"/>
<path d="M70.734 225.001C70.2134 225.001 69.7512 224.867 69.5616 224.631C69.286 224.289 69.6852 223.863 70.4545 223.679C70.6933 223.622 70.939 223.595 71.1732 223.595C71.6937 223.595 72.1559 223.729 72.3463 223.965C72.622 224.307 72.2219 224.733 71.4526 224.917C71.2139 224.974 70.9682 225.001 70.734 225.001" fill="#DFF4EF"/>
<path d="M97.261 150.899L101.024 113.34L116.181 120.545C123.461 124.005 126.719 132.87 125.523 145.954L123.598 166.996L119.512 155.341C117.287 148.994 111.614 146.805 103.435 149.138L97.261 150.899" fill="#17282F"/>
<path d="M52.1132 150.899L48.3518 113.34L33.1934 120.545C25.9152 124.005 22.6568 132.87 23.8535 145.954L25.7772 166.996L29.8637 155.341C32.0884 148.994 37.7606 146.805 45.939 149.138L52.1132 150.899" fill="#17282F"/>
<path d="M97.104 169.067H97.1179L94.2707 158.719H55.1307L52.2836 169.067H52.2984C51.5546 172.199 53.6942 175.457 58.7476 177.86C67.5587 182.048 81.8437 182.048 90.6538 177.86C95.7073 175.457 97.8468 172.199 97.104 169.067Z" fill="#273E47"/>
<path d="M60.7356 166.63C53.0221 162.964 53.0221 157.018 60.7356 153.352C68.4482 149.685 80.9539 149.685 88.6665 153.352C96.38 157.018 96.38 162.964 88.6665 166.63C80.9539 170.296 68.4482 170.296 60.7356 166.63Z" fill="#33535F"/>
<path d="M52.2984 169.067C51.5546 172.199 53.6942 175.457 58.7476 177.86C67.5587 182.048 81.8437 182.048 90.6538 177.86C95.7073 175.457 97.8468 172.199 97.104 169.067L96.3065 166.104C97.0919 168.941 95.1376 171.987 90.4362 174.222C81.7455 178.353 67.6568 178.353 58.9662 174.222C54.2795 171.994 52.3234 168.963 53.0866 166.134L52.2984 169.067" fill="#17282F"/>
<path d="M54.0742 162.561C53.298 165.344 55.1885 168.302 59.7501 170.47C68.0073 174.395 81.3957 174.395 89.652 170.47C94.1923 168.312 96.0864 165.373 95.338 162.6L94.271 158.719C95.0731 161.525 93.2049 164.471 88.6665 166.629C80.9539 170.295 68.4481 170.295 60.7356 166.629C56.1971 164.471 54.3289 161.525 55.131 158.719L54.0742 162.561Z" fill="#17282F"/>
<path d="M90.6538 177.859C90.6621 177.856 90.6705 177.852 90.6788 177.847C90.6705 177.852 90.6621 177.856 90.6538 177.859ZM90.6927 177.841C90.6964 177.839 90.6992 177.838 90.7029 177.836C90.6992 177.837 90.6955 177.839 90.6927 177.841Z" fill="#F4F4F2"/>
<path d="M90.2448 174.311C90.2976 174.099 90.3077 173.895 90.2763 173.701C90.1818 173.106 89.9122 171.95 89.551 170.517C89.5844 170.501 89.6177 170.485 89.652 170.469C90.9496 169.852 92.0305 169.172 92.8965 168.45L94.1376 171.831C93.191 172.689 91.9583 173.497 90.4365 174.221C90.3735 174.25 90.3096 174.281 90.2448 174.311" fill="#3A5159"/>
<path d="M74.7353 180.993C71.3935 180.993 68.0499 180.642 64.9702 179.942C66.5225 180.012 67.9934 180.044 69.3873 180.044C83.4973 180.044 89.6464 176.723 90.2447 174.312C90.3096 174.283 90.3735 174.252 90.4365 174.222C91.9582 173.499 93.191 172.691 94.1376 171.833L95.2065 174.745C94.1311 175.864 92.6344 176.913 90.7032 177.837C90.6995 177.839 90.6967 177.84 90.693 177.842C90.6884 177.844 90.6838 177.846 90.6791 177.848C90.6708 177.853 90.6625 177.856 90.6541 177.86C86.2555 179.951 80.4973 180.994 74.7353 180.993" fill="#2B3C43"/>
<path d="M89.5508 170.518C89.3276 169.632 89.0692 168.641 88.7969 167.61C89.9602 167.24 91.0744 166.818 92.1238 166.346L92.8963 168.45C92.0303 169.172 90.9494 169.853 89.6518 170.47C89.6175 170.486 89.5841 170.502 89.5508 170.518" fill="#2B3C43"/>
<path d="M60.7356 166.63C53.0221 162.964 53.0221 157.018 60.7356 153.352C68.4482 149.685 80.9539 149.685 88.6665 153.352C96.38 157.018 96.38 162.964 88.6665 166.63C80.9539 170.296 68.4482 170.296 60.7356 166.63Z" fill="#33535F"/>
<path d="M114.044 83.742C114.044 43.6211 93.4568 8.94855 78.1493 0.919498C78.0168 0.840946 77.8806 0.767721 77.7389 0.697558L77.6658 0.6579H77.6593C76.7886 0.241499 75.78 -0.000248353 74.701 -0.000248353C73.6219 -0.000248353 72.6133 0.241499 71.7426 0.6579H71.7371L71.663 0.697558C71.5222 0.767721 71.386 0.840946 71.2527 0.919498C55.9451 8.94855 35.3582 43.6211 35.3582 83.742C35.3582 122.35 48.5011 156.568 49.7552 159.747C49.7867 159.827 49.8182 159.907 49.8525 159.988V159.988C50.8074 162.232 53.11 164.371 56.7694 166.111C66.6725 170.819 82.7294 170.819 92.6325 166.111C96.4234 164.308 98.7584 162.076 99.6467 159.745C100.904 156.56 114.044 122.345 114.044 83.742Z" fill="#FC5185"/>
<path d="M89.3482 10.5657C85.5516 6.08898 81.7069 2.77913 78.1512 0.918289C78.0215 0.842025 77.8826 0.773395 77.7436 0.697131L77.6695 0.658999H77.6593C76.7896 0.247175 75.78 0.00312283 74.7056 0.00312283C73.622 0.00312283 72.6124 0.247175 71.7418 0.658999H71.7325L71.6584 0.697131C71.5185 0.773395 71.3898 0.842025 71.25 0.918289C67.6942 2.78675 63.8504 6.08899 60.0437 10.5733C57.8198 13.1891 55.6164 16.2092 53.4861 19.5724C54.152 21.6468 56.1619 23.6373 59.5241 25.2312C67.9072 29.2198 81.4948 29.2198 89.877 25.2312C93.2299 23.6373 95.2491 21.6468 95.915 19.5724C93.7847 16.2016 91.572 13.1815 89.3482 10.5657Z" fill="#33535F"/>
<path d="M62.2888 168.09C60.315 167.562 58.4487 166.91 56.7694 166.112C53.11 164.373 50.8074 162.234 49.8525 159.99V159.989C49.8182 159.909 49.7867 159.829 49.7552 159.748C48.5011 156.569 35.3582 122.351 35.3582 83.7435C35.3582 58.3965 43.5746 35.2253 53.486 19.5721C54.0297 21.2636 55.4663 22.8987 57.8013 24.3096C52.4811 39.1857 48.3502 59.9408 48.3511 84.7213C48.352 116.88 55.8757 149.109 62.2888 168.09" fill="#673DE6"/>
<path d="M57.8013 24.3086C55.4663 22.8977 54.0298 21.2626 53.4861 19.5711C59.2629 10.4476 65.6167 3.87676 71.2527 0.920008C66.9996 4.3923 62.0258 12.4976 57.8013 24.3086Z" fill="#29444E"/>
<path d="M95.8 164.277C97.759 162.883 99.0399 161.338 99.6466 159.746C100.025 158.788 101.48 155.018 103.327 149.166H103.328C101.479 155.022 100.024 158.79 99.6466 159.747C99.6151 159.828 99.5837 159.908 99.5503 159.988L99.5494 159.989C98.9084 161.495 97.659 162.955 95.8 164.277ZM110.921 118.043C112.388 109.64 113.516 100.419 113.901 90.8116C113.516 100.419 112.388 109.64 110.921 118.043Z" fill="white"/>
<path d="M103.328 149.167C105.69 141.689 108.695 130.812 110.922 118.044C108.696 130.809 105.689 141.69 103.329 149.167H103.328" fill="#607175"/>
<path d="M95.4343 164.531C95.5594 164.447 95.6807 164.363 95.8002 164.278C95.6816 164.363 95.5584 164.448 95.4343 164.531Z" fill="#6B7E84"/>
<path d="M92.6323 166.112C93.6771 165.615 94.6107 165.087 95.4341 164.531C94.6107 165.087 93.6771 165.615 92.6323 166.112Z" fill="#607175"/>
<path d="M113.901 90.8086C113.904 90.7361 113.907 90.6614 113.909 90.5897C113.907 90.6614 113.904 90.7361 113.901 90.8086ZM113.911 90.5554C113.911 90.5485 113.911 90.5409 113.911 90.534C113.911 90.5409 113.911 90.5485 113.911 90.5554ZM113.913 90.4997C113.913 90.4929 113.913 90.4852 113.914 90.4784C113.913 90.4852 113.913 90.4929 113.913 90.4997ZM113.918 90.3724C113.918 90.3701 113.918 90.3693 113.918 90.367C113.918 90.3693 113.918 90.3701 113.918 90.3724ZM113.92 90.3251C113.92 90.3197 113.92 90.3159 113.921 90.3114C113.92 90.3159 113.92 90.3197 113.92 90.3251ZM113.921 90.274C113.921 90.2671 113.922 90.2625 113.922 90.2557C113.922 90.2625 113.921 90.2671 113.921 90.274ZM113.923 90.2198C113.924 90.213 113.924 90.2069 113.924 90.2C113.924 90.2069 113.924 90.213 113.923 90.2198ZM113.924 90.1893C113.934 89.9506 113.942 89.715 113.949 89.4755C113.942 89.7127 113.934 89.9529 113.924 90.1893ZM113.951 89.4381C113.951 89.4313 113.951 89.4259 113.951 89.4191C113.951 89.4259 113.951 89.4313 113.951 89.4381ZM113.951 89.4114C113.955 89.3016 113.959 89.1941 113.962 89.0843C113.959 89.1941 113.955 89.3016 113.951 89.4114ZM113.963 89.0553C113.963 89.0461 113.963 89.0377 113.963 89.0278C113.963 89.0377 113.963 89.0461 113.963 89.0553ZM113.964 89.0179C113.967 88.9272 113.969 88.8395 113.972 88.7487C113.97 88.8372 113.967 88.9295 113.964 89.0179ZM113.972 88.7434C113.972 88.7197 113.973 88.693 113.974 88.6694C113.973 88.693 113.972 88.7197 113.972 88.7434ZM113.976 88.584V88.5809V88.584ZM113.977 88.5512C113.978 88.542 113.978 88.5344 113.978 88.5245C113.978 88.5344 113.978 88.542 113.977 88.5512ZM113.978 88.5199C113.98 88.4665 113.981 88.4108 113.983 88.3575C113.981 88.4108 113.98 88.4665 113.978 88.5199ZM113.984 88.3331C113.985 88.2652 113.986 88.2004 113.988 88.1333C113.986 88.1981 113.985 88.2675 113.984 88.3331ZM113.988 88.1279C113.991 88.0189 113.994 87.9045 113.997 87.7946C113.994 87.9045 113.991 88.0189 113.988 88.1279ZM113.999 87.6924C113.999 87.6902 113.999 87.6871 113.999 87.6848C113.999 87.6871 113.999 87.6902 113.999 87.6924ZM114.002 87.559C114.003 87.5071 114.004 87.456 114.005 87.4049C114.004 87.456 114.003 87.5071 114.002 87.559ZM114.006 87.3897C114.008 87.2959 114.009 87.2044 114.011 87.1106C114.009 87.2044 114.008 87.2959 114.006 87.3897ZM114.013 87.0328C114.013 86.9885 114.014 86.9435 114.015 86.8993C114.014 86.9435 114.013 86.9885 114.013 87.0328ZM114.015 86.8993C114.017 86.8169 114.018 86.7323 114.02 86.6499C114.018 86.7346 114.017 86.8147 114.015 86.8993ZM114.021 86.6072C114.023 86.4432 114.025 86.2762 114.028 86.1123C114.025 86.2762 114.023 86.4432 114.021 86.6072ZM114.042 84.5939C114.042 84.5916 114.042 84.5923 114.042 84.59V84.5939ZM114.044 84.2133C114.044 84.0562 114.044 83.9006 114.044 83.7427C114.044 83.9006 114.044 84.0562 114.044 84.2133Z" fill="white"/>
<path d="M92.6323 166.112C100.06 143.743 108.547 116.881 108.547 84.7213C108.548 58.9914 101.585 37.6024 93.854 22.6273C94.8886 21.6579 95.5768 20.6253 95.9148 19.5714C95.7713 19.3433 95.6258 19.1168 95.4814 18.8919C105.586 34.5496 114.044 58.0266 114.044 83.7436C114.044 83.9014 114.044 84.057 114.044 84.2141C114.043 84.3392 114.043 84.4665 114.042 84.5909C114.042 84.5931 114.042 84.5924 114.042 84.5947C114.04 85.0461 114.035 85.4938 114.03 85.9445C114.029 86.0002 114.029 86.0566 114.028 86.1131C114.025 86.277 114.023 86.4441 114.02 86.608C114.02 86.6218 114.02 86.637 114.02 86.6507C114.018 86.7331 114.017 86.8178 114.015 86.9001C114.014 86.9444 114.013 86.9894 114.013 87.0336C114.012 87.0595 114.011 87.0854 114.011 87.1114C114.009 87.2052 114.007 87.2967 114.006 87.3905C114.006 87.3951 114.006 87.4004 114.005 87.4057C114.004 87.4568 114.003 87.5079 114.002 87.5598C114.001 87.6017 114 87.6437 113.999 87.6856C113.999 87.6879 113.999 87.691 113.999 87.6933C113.998 87.7283 113.997 87.7604 113.996 87.7955C113.994 87.9053 113.991 88.0197 113.988 88.1287C113.988 88.1318 113.988 88.1318 113.988 88.1341C113.986 88.2012 113.985 88.266 113.983 88.3339C113.982 88.343 113.982 88.3491 113.982 88.3583C113.981 88.4117 113.98 88.4673 113.978 88.5207C113.978 88.523 113.978 88.523 113.978 88.5253C113.978 88.5352 113.978 88.5428 113.977 88.552C113.977 88.5611 113.977 88.5726 113.976 88.5817V88.5848C113.975 88.6153 113.975 88.6405 113.974 88.6702C113.973 88.6938 113.972 88.7205 113.971 88.7442C113.971 88.7465 113.971 88.7472 113.971 88.7495C113.969 88.8403 113.967 88.928 113.964 89.0187C113.964 89.0233 113.964 89.0241 113.963 89.0286C113.963 89.0386 113.963 89.0469 113.963 89.0561C113.962 89.0653 113.962 89.0759 113.962 89.0851C113.958 89.1949 113.955 89.3024 113.951 89.4122C113.951 89.4145 113.951 89.4176 113.951 89.4199C113.951 89.4267 113.951 89.4321 113.951 89.4389C113.95 89.4504 113.95 89.4641 113.949 89.4763C113.942 89.7158 113.933 89.9514 113.924 90.1901C113.924 90.1947 113.924 90.1962 113.924 90.2008C113.924 90.2077 113.924 90.2138 113.923 90.2207C113.923 90.2321 113.922 90.2451 113.922 90.2565C113.922 90.2634 113.921 90.2679 113.921 90.2748C113.921 90.2862 113.92 90.3007 113.92 90.3122C113.92 90.3167 113.92 90.3205 113.92 90.3259C113.919 90.3396 113.919 90.3541 113.918 90.3678C113.918 90.3701 113.918 90.3709 113.918 90.3732C113.917 90.4083 113.915 90.4449 113.914 90.4792C113.913 90.486 113.913 90.4937 113.913 90.5005C113.912 90.512 113.912 90.5234 113.911 90.5348C113.911 90.5417 113.911 90.5493 113.911 90.5562C113.91 90.5676 113.91 90.5791 113.909 90.5905C113.907 90.6622 113.904 90.737 113.901 90.8094C113.901 90.8117 113.901 90.8102 113.901 90.8125C113.516 100.419 112.388 109.641 110.921 118.044C108.695 130.812 105.69 141.69 103.327 149.167C101.48 155.019 100.024 158.789 99.6465 159.747C99.0399 161.339 97.7589 162.884 95.8 164.278C95.6805 164.363 95.5592 164.447 95.4341 164.531C94.6107 165.087 93.6771 165.615 92.6323 166.112" fill="#673DE6"/>
<path d="M93.8541 22.625C88.2292 11.7269 82.1967 4.22331 78.1492 0.918794C83.6444 3.80157 89.8213 10.1193 95.4814 18.8896C95.6259 19.1146 95.7713 19.3411 95.9149 19.5691C95.5768 20.6231 94.8886 21.6557 93.8541 22.625Z" fill="#738D92"/>
<path d="M119.016 140.321L104.785 118.704L101.024 120.493L94.4819 154.476L100.656 158.585C108.835 164.028 114.508 171.61 116.733 180.073L120.819 195.612C120.819 195.612 122.614 185.735 124.581 173.775C126.343 163.064 126.296 150.702 119.016 140.321" fill="#33535F"/>
<path d="M94.4819 154.476L101.024 120.493L115.254 142.109C122.534 152.49 123.94 164.454 122.744 176.401L120.819 195.612L116.733 180.073C114.509 171.61 108.835 164.028 100.656 158.585L94.4819 154.476" fill="#273E47"/>
<path d="M30.3575 140.321L44.5887 118.704L48.351 120.493L54.891 154.476L48.7178 158.585C40.5393 164.028 34.8663 171.61 32.6415 180.073L28.5551 195.612C28.5551 195.612 26.76 185.735 24.7928 173.775C23.0311 163.064 23.0784 150.702 30.3575 140.321" fill="#33535F"/>
<path d="M54.8911 154.476L48.3511 120.493L34.1207 142.109C26.8407 152.49 25.4347 164.454 26.6314 176.401L28.5551 195.612L32.6416 180.073C34.8663 171.61 40.5394 164.028 48.7179 158.585L54.8911 154.476" fill="#273E47"/>
<path d="M91.9331 62.3621C91.9331 70.1997 84.2178 76.5518 74.7009 76.5518C65.1841 76.5518 57.4678 70.1997 57.4678 62.3621C57.4678 54.526 65.1841 48.1724 74.7009 48.1724C84.2178 48.1724 91.9331 54.526 91.9331 62.3621Z" fill="#273E47"/>
<path d="M88.3959 62.3604C88.3959 68.5881 82.2643 73.6367 74.7009 73.6367C67.1374 73.6367 61.0059 68.5881 61.0059 62.3604C61.0059 56.1327 67.1374 51.0847 74.7009 51.0847C82.2643 51.0847 88.3959 56.1327 88.3959 62.3604Z" fill="#FC5185"/>
<path d="M74.7009 73.6367C67.1374 73.6367 61.0059 68.5881 61.0059 62.3604C61.0059 56.1327 67.1374 51.0847 74.7009 51.0847C82.2643 51.0847 88.3959 56.1327 88.3959 62.3604C88.3959 68.5881 82.2643 73.6367 74.7009 73.6367Z" fill="#A1DFD6"/>
<path d="M86.9899 96.3676C86.9899 101.955 81.4873 106.486 74.7009 106.486C67.9145 106.486 62.4119 101.955 62.4119 96.3676C62.4119 90.7798 67.9145 86.2489 74.7009 86.2489C81.4873 86.2489 86.9899 90.7798 86.9899 96.3676Z" fill="#273E47"/>
<path d="M83.6391 96.3681C83.6391 100.433 79.6379 103.728 74.7012 103.728C69.7654 103.728 65.7632 100.433 65.7632 96.3681C65.7632 92.3032 69.7654 89.0086 74.7012 89.0086C79.6379 89.0086 83.6391 92.3032 83.6391 96.3681Z" fill="#FC5185"/>
<path d="M74.7012 103.728C69.7654 103.728 65.7632 100.433 65.7632 96.3681C65.7632 92.3032 69.7654 89.0086 74.7012 89.0086C79.6379 89.0086 83.6391 92.3032 83.6391 96.3681C83.6391 100.433 79.6379 103.728 74.7012 103.728Z" fill="#A1DFD6"/>
<path d="M16.5171 47.9233C16.9394 47.4558 17.5044 47.0905 18.1546 46.8617C17.5878 46.5132 17.1432 46.048 16.8662 45.5126C16.443 45.9793 15.878 46.3454 15.2268 46.5742C15.7937 46.922 16.2392 47.3872 16.5171 47.9233ZM21.0138 47.1416C20.9786 47.3856 20.7221 47.5649 20.4248 47.5542L19.8727 47.5359C18.4334 47.4856 17.1867 48.2924 16.9079 49.4562L16.8005 49.9016C16.7449 50.1418 16.4717 50.3065 16.1762 50.2768C15.8807 50.2478 15.6622 50.0366 15.6742 49.7925L15.6983 49.3372C15.7585 48.1529 14.7786 47.1263 13.3633 46.8968L12.8224 46.8083C12.5306 46.761 12.3334 46.5368 12.3676 46.2935L12.3686 46.2928C12.4028 46.0503 12.6612 45.8695 12.9585 45.8809L13.5096 45.9008C14.948 45.9503 16.1947 45.1427 16.4735 43.9789L16.581 43.5328C16.6384 43.2926 16.9116 43.1294 17.2071 43.1583C17.5016 43.1873 17.7202 43.3993 17.7072 43.6441L17.6832 44.0987C17.623 45.283 18.6038 46.3096 20.0172 46.5391L20.5581 46.6268C20.8499 46.6741 21.049 46.8991 21.0138 47.1416" fill="#FC5185"/>
<path d="M1.15584 21.3013C0.991899 22.4338 1.97739 23.4657 3.35282 23.5999C4.72824 23.7357 5.9814 22.9234 6.14442 21.7917C6.30836 20.6592 5.32379 19.6281 3.94651 19.4931C2.57201 19.3581 1.31885 20.1696 1.15584 21.3013V21.3013ZM7.27442 21.9023C7.03638 23.5473 5.21636 24.7271 3.21759 24.5303C1.21975 24.3343 -0.212175 22.8357 0.0258619 21.1907C0.264825 19.5449 2.08389 18.3667 4.08173 18.5627C6.08143 18.7587 7.51338 20.2573 7.27442 21.9023" fill="#FC5185"/>
<path d="M132.864 50.5287C132.441 50.062 132.176 49.5129 132.096 48.9333C131.528 49.2818 130.861 49.4999 130.158 49.5655C130.581 50.033 130.846 50.5829 130.927 51.1617C131.493 50.8132 132.161 50.5951 132.864 50.5287V50.5287ZM133.217 46.7499L133.237 46.7559C133.511 46.8528 133.647 47.1075 133.551 47.3386L133.371 47.7695V47.7703C132.9 48.8906 133.486 50.1055 134.761 50.6569L135.249 50.8681C135.512 50.9825 135.624 51.2441 135.508 51.4691C135.389 51.694 135.081 51.8054 134.8 51.7268L134.278 51.5789C132.915 51.1915 131.442 51.6734 130.771 52.7236L130.514 53.1263C130.376 53.3429 130.05 53.429 129.786 53.3383C129.512 53.2414 129.376 52.9875 129.472 52.7556L129.651 52.3263C130.122 51.2044 129.536 49.9903 128.261 49.4382L127.772 49.2261C127.509 49.1125 127.398 48.8494 127.514 48.6252C127.633 48.4002 127.942 48.2889 128.223 48.3689L128.745 48.5169C130.106 48.9028 131.581 48.4208 132.251 47.3714L132.508 46.9687C132.644 46.7575 132.949 46.6644 133.217 46.7499" fill="#FC5185"/>
<path d="M118.065 22.5352C118.19 22.5749 118.322 22.6069 118.455 22.6305C119.112 22.7449 119.783 22.6427 120.346 22.3415C120.908 22.0395 121.294 21.5766 121.433 21.0358C121.572 20.4951 121.448 19.9422 121.082 19.4793C120.325 18.523 118.766 18.2522 117.606 18.873C116.445 19.4953 116.115 20.7796 116.87 21.7344C117.161 22.1028 117.577 22.3804 118.065 22.5352V22.5352ZM120.296 17.8053C120.986 18.0257 121.603 18.4192 122.035 18.9683C123.134 20.3571 122.653 22.2233 120.966 23.1262C119.28 24.0307 117.014 23.6364 115.916 22.2462C114.818 20.8574 115.298 18.9912 116.985 18.0883C118.006 17.5414 119.239 17.4697 120.296 17.8053Z" fill="#FC5185"/>
<path d="M149.876 26.4329L149.887 26.4367L151.645 27.027C151.937 27.1238 152.077 27.3976 151.957 27.6379C151.839 27.8773 151.521 27.9856 151.215 27.8949L149.456 27.3038C149.165 27.2062 149.025 26.9324 149.144 26.693C149.261 26.4558 149.588 26.3414 149.876 26.4329Z" fill="#FC5185"/>
<path d="M149.973 23.7658L149.982 23.7689C150.274 23.8657 150.413 24.1395 150.294 24.3797L149.577 25.828C149.459 26.0675 149.098 26.1788 148.834 26.085C148.544 25.9874 148.404 25.7136 148.523 25.4741L149.241 24.0251C149.358 23.7887 149.684 23.6735 149.973 23.7658" fill="#FC5185"/>
<path d="M145.912 25.1001L145.923 25.1032L147.681 25.6942C147.971 25.7926 148.112 26.0664 147.993 26.3051C147.874 26.5446 147.536 26.6475 147.25 26.5621L145.492 25.9703C145.201 25.8727 145.062 25.5989 145.18 25.3602C145.297 25.123 145.623 25.0078 145.912 25.1001Z" fill="#FC5185"/>
<path d="M148.355 27.0311L148.365 27.0341C148.656 27.1325 148.796 27.4055 148.677 27.645L147.959 29.0932C147.841 29.3342 147.475 29.4608 147.216 29.3502C146.926 29.2519 146.786 28.9781 146.905 28.7386L147.623 27.2911C147.74 27.0539 148.067 26.9395 148.355 27.0311Z" fill="#FC5185"/>
</svg>
