<svg width="30" height="23" viewBox="0 0 30 23" fill="none" xmlns="http://www.w3.org/2000/svg">
<path fill-rule="evenodd" clip-rule="evenodd" d="M29.3737 3.54751C29.1995 2.86408 28.8673 2.24159 28.4094 1.74032C27.9515 1.23905 27.3834 0.875987 26.7601 0.686276C24.4203 3.27826e-05 15.0143 3.29743e-05 15.0143 3.29743e-05C15.0143 3.29743e-05 5.62609 -0.0164289 3.26193 0.686276C2.63961 0.87682 2.07262 1.24027 1.61576 1.74149C1.1589 2.24272 0.827615 2.86476 0.653937 3.54751C0.209612 6.17542 -0.00922444 8.84324 0.000297826 11.516C-0.00403766 14.1758 0.214765 16.8305 0.653937 19.4464C0.828177 20.1295 1.15956 20.752 1.61626 21.2541C2.07296 21.7562 2.63965 22.1211 3.26193 22.3138C5.60171 23 15.0143 23 15.0143 23C15.0143 23 24.3969 23 26.7601 22.3138C27.3834 22.122 27.9512 21.7574 28.4089 21.2553C28.8666 20.7531 29.1989 20.1301 29.3737 19.4464C29.8042 16.832 30.0142 14.1735 29.9992 11.516C30.0142 8.84095 29.8089 6.17828 29.3737 3.54751ZM12.0096 6.56925V16.4411L19.8392 11.516L12.0096 6.56925Z" fill="#7D54F4"/>
<path d="M12.0096 16.4411V6.56925L19.8392 11.516L12.0096 16.4411Z" fill="white"/>
</svg>
